<?xml version="1.0" encoding="UTF-8"?>
<svg version="1.1" xmlns="http://www.w3.org/2000/svg" width="512" height="512">
<path d="M0 0 C1.20677017 -0.00445784 2.41354034 -0.00891569 3.65687931 -0.01350862 C5.00810553 -0.01341931 6.35933174 -0.01322944 7.71055794 -0.01294994 C9.13661523 -0.01624763 10.56267158 -0.01997299 11.98872674 -0.02409142 C15.92143153 -0.03413019 19.85412106 -0.03783121 23.78683686 -0.04048073 C28.0227799 -0.04437816 32.25871078 -0.05395679 36.49464607 -0.0626936 C46.73047561 -0.08247254 56.96630617 -0.09252542 67.20215005 -0.10142139 C72.01824807 -0.10580141 76.83434498 -0.11116891 81.65044212 -0.11641026 C97.6525843 -0.13342296 113.65472578 -0.14791866 129.65687561 -0.155159 C133.81117313 -0.15706899 137.96547064 -0.15898931 142.11976814 -0.16094494 C143.66862684 -0.16167055 143.66862684 -0.16167055 145.24877562 -0.16241082 C161.98781737 -0.17071684 178.72678778 -0.19606322 195.46579836 -0.22852562 C212.63755088 -0.26155677 229.8092671 -0.27960413 246.98105156 -0.28280324 C256.62804214 -0.28497186 266.27492866 -0.29377189 275.92188835 -0.31926441 C284.13503891 -0.34091751 292.34806015 -0.34904848 300.56123601 -0.33929763 C304.75414827 -0.33473738 308.9467934 -0.33673864 313.13966942 -0.35605907 C316.97526211 -0.37358112 320.81039065 -0.37278325 324.64598753 -0.35716178 C326.03630486 -0.35476892 327.42665341 -0.35919546 328.81692277 -0.37099043 C330.70164269 -0.38599463 332.58652004 -0.37410751 334.47125244 -0.36076355 C335.51971529 -0.36174036 336.56817814 -0.36271717 337.64841259 -0.36372358 C341.08149656 0.26637274 342.20214393 1.44647768 344.36146736 4.13422108 C345.60804098 6.40787491 346.72627431 8.62507098 347.79506111 10.97797108 C348.26691086 11.9886137 348.26691086 11.9886137 348.74829292 13.01967335 C349.77352381 15.22075877 350.78631399 17.42732464 351.79896736 19.63422108 C352.50668366 21.16021773 353.21518777 22.68584925 353.92445564 24.21112537 C355.37055622 27.32445653 356.81167987 30.44001659 358.24867439 33.55756092 C360.23078239 37.85592409 362.22902313 42.14659454 364.23256111 46.43500233 C366.45344919 51.19381941 368.674303 55.95264657 370.88490486 60.71625233 C371.53338387 62.11194447 371.53338387 62.11194447 372.19496346 63.53583241 C374.67658937 69.06365674 375.94425025 72.05559574 374.36146736 78.13422108 C372.56395028 81.83427011 370.44268458 85.31360994 368.29896736 88.82172108 C367.01496533 90.97059495 365.73247349 93.12037174 364.45131111 95.27093983 C363.44366707 96.95389149 363.44366707 96.95389149 362.41566658 98.67084217 C359.32483716 103.85913142 356.34902729 109.11313266 353.36686897 114.36435413 C348.08929876 123.65476799 342.76049628 132.91373654 337.36146736 142.13422108 C332.32956946 150.72939398 327.35757612 159.3573433 322.42396736 168.00922108 C314.169811 182.48372477 305.84429364 196.91643954 297.50697517 211.34320545 C295.64544064 214.56490383 293.78447897 217.78693186 291.92396736 221.00922108 C291.30844002 222.07527576 290.69291267 223.14133045 290.05873299 224.23968983 C285.10693694 232.82417704 280.19321868 241.430024 275.2841053 250.0389452 C270.12730128 259.07893815 264.90602967 268.07947429 259.64808846 277.06097889 C255.19230392 284.68327886 250.7974959 292.33953419 246.42396736 300.00922108 C240.02037135 311.23857876 233.58120826 322.44669175 227.11146736 333.63812733 C224.84116598 337.56625164 222.57758247 341.49807206 220.32324409 345.43536854 C219.30643205 347.21102923 218.28835224 348.98595716 217.26991463 350.76068592 C215.99709497 352.9796459 214.72658285 355.19993183 213.45887947 357.42181873 C203.65794494 374.48598229 203.65794494 374.48598229 200.36146736 376.13422108 C198.29502581 376.25146648 196.22480479 376.30400693 194.15516853 376.32709217 C192.19754837 376.35118656 192.19754837 376.35118656 190.20038033 376.37576771 C188.76840554 376.38725451 187.33642347 376.39786316 185.90443611 376.40765858 C185.1843619 376.41298225 184.46428768 376.41830593 183.72239304 376.42379093 C179.91060768 376.45051784 176.09885501 376.46989364 172.28700447 376.48431873 C168.35244922 376.50096091 164.41873255 376.54573477 160.48449421 376.59669018 C157.45698285 376.6303698 154.42967032 376.64189682 151.40198898 376.64754581 C149.95190018 376.65425705 148.5018244 376.66947617 147.05191803 376.69343662 C145.02015913 376.72509518 142.98795054 376.72212274 140.95594978 376.71771717 C139.80060234 376.72580402 138.6452549 376.73389088 137.45489693 376.74222279 C132.54608226 375.7774141 130.36885012 372.62980262 127.67079353 368.62421131 C127.17039558 367.73935047 126.66999763 366.85448963 126.15443611 365.94281483 C125.57621101 364.9300951 124.99798592 363.91737537 124.40223885 362.87396717 C123.79065926 361.78422596 123.17907967 360.69448475 122.54896736 359.57172108 C121.55339497 357.82210643 120.55781651 356.07249521 119.56192207 354.32306385 C118.52153686 352.49235383 117.48493655 350.65954838 116.44935799 348.82611561 C113.4189295 343.46280831 110.36057426 338.11546453 107.30351448 332.76730824 C106.29296608 330.99871807 105.28355398 329.22948313 104.27430916 327.46014881 C100.01248921 319.99307691 95.70512468 312.55396516 91.36146736 305.13422108 C86.32966046 296.53899436 81.35757664 287.91109978 76.42396736 279.25922108 C69.39543229 266.93396912 62.31906302 254.6370004 55.22035408 242.35199451 C51.47168703 235.86297012 47.72838069 229.37085158 43.98402596 222.87933826 C40.87328398 217.48673793 37.7613341 212.09484285 34.64662361 206.70453358 C27.85185172 194.94215534 21.0855358 183.164066 14.35249519 171.36627674 C7.67861132 159.67354491 0.95624454 148.00910776 -5.77964592 136.35199451 C-8.90177871 130.94751459 -12.01991016 125.54072707 -15.13853264 120.13422108 C-16.3729031 117.99489554 -17.60727811 115.85557263 -18.84165764 113.71625233 C-21.1482312 109.718312 -23.4539639 105.71988912 -25.75864983 101.72086048 C-27.13660201 99.3299551 -28.51487436 96.93923436 -29.89317131 94.54852772 C-30.86394246 92.86438145 -31.83425138 91.17996876 -32.80454826 89.4955492 C-33.6891674 87.96124256 -33.6891674 87.96124256 -34.59165764 86.39593983 C-35.10889397 85.49834949 -35.62613029 84.60075916 -36.15904045 83.67596912 C-37.17736007 81.92650946 -38.23584549 80.2000179 -39.32627678 78.49457264 C-40.80213239 75.83995459 -40.91253304 74.25401581 -40.31577873 71.29095936 C-38.70966418 66.1761735 -36.26723037 61.39378203 -33.95103264 56.57172108 C-33.37066643 55.34641676 -32.79125767 54.12065853 -32.21275139 52.89447498 C-30.99230145 50.30987515 -29.76727267 47.7275147 -28.53941154 45.14642811 C-26.61740096 41.09888539 -24.72438554 37.03819544 -22.83775139 32.97406483 C-22.37167221 31.9707336 -22.37167221 31.9707336 -21.89617729 30.94713306 C-20.68321937 28.33577605 -19.47051153 25.72430299 -18.25806999 23.11270618 C-15.49534011 17.16740397 -12.71788008 11.22847026 -9.85728264 5.32953358 C-9.47507561 4.53821033 -9.09286858 3.74688709 -8.69907951 2.93158436 C-6.61443791 -0.60136488 -3.76786042 0.00642958 0 0 Z M6.36146736 11.13422108 C7.78342318 14.77481839 9.38090587 18.08389136 11.34584236 21.46625233 C11.94404793 22.49959705 12.54225349 23.53294178 13.1585865 24.59759998 C14.12526253 26.25541492 14.12526253 26.25541492 15.11146736 27.94672108 C15.78808437 29.11241953 16.46443109 30.2782749 17.1405201 31.44427967 C18.8758149 34.43483689 20.61531239 37.42292323 22.35652351 40.41003895 C23.30878562 42.04383502 24.26020019 43.678125 25.21156502 45.31244373 C28.67796945 51.26705649 32.15110829 57.21770821 35.62758064 63.16644764 C39.12649963 69.15530419 42.619638 75.14753456 46.11390877 81.13910389 C49.01618441 86.11512708 51.91975816 91.09038243 54.82631111 96.06390858 C60.82923761 106.33954606 66.80343287 116.63055661 72.73646736 126.94672108 C77.8543285 135.84318997 83.04794201 144.69074917 88.29896736 153.50922108 C93.74976407 162.66468042 99.09775989 171.87061189 104.36146736 181.13422108 C111.63017179 193.92556292 119.06024905 206.6166102 126.63588142 219.22894764 C127.7955287 221.18138151 128.93268647 223.14733291 130.0479908 225.12543201 C130.57167244 226.04356678 131.09535408 226.96170155 131.63490486 227.90765858 C132.09042732 228.72411854 132.54594978 229.5405785 133.01527596 230.38177967 C133.45951912 230.96008533 133.90376228 231.538391 134.36146736 232.13422108 C135.35146736 232.13422108 136.34146736 232.13422108 137.36146736 232.13422108 C137.9067408 231.15324451 138.45201424 230.17226795 139.01381111 229.16156483 C143.57323823 220.99093262 148.24440992 212.91147705 153.12318611 204.92718983 C153.45769783 204.33301258 153.79220955 203.73883533 154.13685799 203.12665272 C155.36146736 201.13422108 155.36146736 201.13422108 157.24232674 198.81171131 C159.37795912 195.85137665 160.57982775 193.71462602 161.36146736 190.13422108 C159.72139802 184.14034113 156.65653472 179.12564515 153.48646736 173.82172108 C152.61873993 172.29363836 151.75548692 170.76300656 150.89662361 169.2299242 C149.19205658 166.2015515 147.46529373 163.18806034 145.71400642 160.18646717 C142.82266085 155.22628177 140.08591968 150.18748096 137.36146736 145.13422108 C136.42429875 143.42570593 135.48678607 141.71737947 134.54896736 140.00922108 C130.41164817 132.42413589 126.39446298 124.77508973 122.36146736 117.13422108 C116.30108632 105.65329187 110.18789343 94.20579129 103.93959236 82.82562733 C103.52902596 82.06781971 103.11845955 81.31001209 102.69545174 80.52924061 C101.72165864 78.78090417 100.70657388 77.05538414 99.66810799 75.3446703 C99.10801033 74.39737049 98.54791267 73.45007069 97.97084236 72.47406483 C97.44973885 71.62062489 96.92863533 70.76718494 96.3917408 69.88788319 C95.36146736 67.13422108 95.36146736 67.13422108 96.36146736 60.13422108 C182.16146736 59.80422108 267.96146736 59.47422108 356.36146736 59.13422108 C354.130096 52.21281354 354.130096 52.21281354 351.38441658 45.64008045 C351.02749733 44.88319935 350.67057808 44.12631824 350.30284309 43.34650135 C349.74018242 42.17407887 349.74018242 42.17407887 349.16615486 40.97797108 C348.77324257 40.14962757 348.38033028 39.32128407 347.97551155 38.46783924 C347.15266449 36.7356804 346.32734871 35.0046923 345.49965096 33.27484608 C344.22779127 30.61608413 342.96395952 27.95361801 341.70131111 25.29047108 C340.89838658 23.60275174 340.09501739 21.91524385 339.29115486 20.22797108 C338.72242149 19.03125782 338.72242149 19.03125782 338.14219856 17.81036854 C336.61669283 14.23150631 336.61669283 14.23150631 334.36146736 11.13422108 C332.61518395 11.03684691 330.86491798 11.01050646 329.11592197 11.01117325 C327.97137718 11.0091822 326.82683238 11.00719115 325.64760441 11.00513977 C323.73762711 11.00950903 323.73762711 11.00950903 321.78906441 11.01396656 C320.43526663 11.01353098 319.08146893 11.01265631 317.72767168 11.01137739 C313.99020416 11.0091299 310.25276501 11.01315718 306.51530111 11.01815546 C302.49142287 11.02245614 298.46754635 11.02101381 294.44366646 11.02025318 C287.46626529 11.0197277 280.48887344 11.02287699 273.51147461 11.02849102 C263.42320859 11.0366028 253.3349471 11.03922091 243.24667818 11.04047901 C226.88088595 11.04267004 210.51509869 11.0493315 194.14930916 11.05878162 C178.24729118 11.06795443 162.34527456 11.0750359 146.44325447 11.07928944 C144.97404673 11.07968352 144.97404673 11.07968352 143.47515803 11.08008557 C138.5616533 11.08139056 133.64814856 11.08265428 128.73464382 11.08389747 C87.94358154 11.09427167 47.15252473 11.11189136 6.36146736 11.13422108 Z M-3.63853264 18.13422108 C-5.91592974 22.93025182 -8.19032872 27.72769002 -10.46226311 32.52631092 C-11.23134875 34.14972334 -12.00117483 35.77278524 -12.77183342 37.39545155 C-15.03238578 42.15590887 -17.27276983 46.92515304 -19.49644279 51.70294666 C-20.66456489 54.18963838 -21.85978145 56.66216164 -23.05650139 59.13519764 C-23.81392046 60.74121473 -24.57046389 62.34764515 -25.32603264 63.95453358 C-25.68954826 64.68872517 -26.05306389 65.42291676 -26.42759514 66.17935658 C-28.09444208 69.7846348 -28.78033847 71.44445958 -27.95933342 75.43793201 C-26.30385288 78.81743794 -24.4729733 82.05037958 -22.51353264 85.25922108 C-18.22164982 92.41906685 -14.04260867 99.63843326 -9.91447258 106.89368153 C-4.54071494 116.33779924 0.87035003 125.75766378 6.36146736 135.13422108 C11.39341754 143.72936312 16.3653589 152.35734381 21.29896736 161.00922108 C26.48589162 170.10502095 31.68828242 179.19134371 36.92396736 188.25922108 C37.53949471 189.32527576 38.15502205 190.39133045 38.78920174 191.48968983 C40.6461693 194.70479631 42.50370316 197.91957485 44.36146736 201.13422108 C52.4223604 215.08266475 60.45856162 229.04425996 68.43882942 243.0389452 C73.03540959 251.0968532 77.67470896 259.12839894 82.36146736 267.13422108 C87.39327426 275.72944779 92.36535808 284.35734238 97.29896736 293.00922108 C104.30572081 305.29627673 111.35991967 317.55527484 118.43666267 329.80218983 C121.55342603 335.19762188 124.66655552 340.59514961 127.77989388 345.99255848 C129.38897149 348.78205038 130.99827498 351.57141197 132.60756111 354.36078358 C133.52552986 355.95192941 134.44349861 357.54307524 135.36146736 359.13422108 C137.64229318 356.22408526 139.50448924 353.24619347 141.29506111 350.01312733 C141.85620613 349.00459705 142.41735115 347.99606678 142.99550056 346.95697498 C143.59064461 345.88109119 144.18578865 344.80520741 144.79896736 343.69672108 C150.03016159 334.28620156 155.31778957 324.9127907 160.71669197 315.59735584 C161.18341316 314.78709949 161.65013435 313.97684315 162.13099861 313.14203358 C162.74358528 312.08459949 162.74358528 312.08459949 163.36854744 311.00580311 C164.49680731 309.00362748 164.49680731 309.00362748 165.36146736 306.13422108 C164.53052223 304.08533222 164.53052223 304.08533222 163.14271736 301.94281483 C162.63055672 301.09437 162.11839607 300.24592518 161.59071541 299.37176991 C161.02006355 298.44775379 160.4494117 297.52373768 159.86146736 296.57172108 C158.64774085 294.56480708 157.4355624 292.55695623 156.22474861 290.54828358 C155.58746834 289.49544178 154.95018806 288.44259998 154.29359627 287.35785389 C151.13966607 282.09572421 148.09798506 276.7700888 145.04896736 271.44672108 C139.91290902 262.50691266 134.6996708 253.61727968 129.42396736 244.75922108 C123.62811666 235.02441539 117.95941191 225.22635621 112.3627491 215.37653065 C107.43021531 206.70021426 102.40469109 198.08527529 97.29896736 189.50922108 C88.89261324 175.38879741 80.69016318 161.15528324 72.50697517 146.90472889 C65.53470401 134.76835579 58.51529991 122.66464343 51.36146736 110.63422108 C42.93863373 96.46975116 34.71321193 82.19542134 26.50697517 67.90472889 C19.58305211 55.85251352 12.62904362 43.81850718 5.56871223 31.84561634 C4.84998747 30.62605616 4.13246839 29.4057846 3.41618538 28.1847887 C2.42508902 26.49648127 1.42857541 24.81135742 0.43177986 23.12640858 C-0.13782463 22.16073963 -0.70742912 21.19507069 -1.29429436 20.20013905 C-1.73789299 19.51838612 -2.18149162 18.83663319 -2.63853264 18.13422108 C-2.96853264 18.13422108 -3.29853264 18.13422108 -3.63853264 18.13422108 Z M109.36146736 70.13422108 C115.37346359 82.23984467 115.37346359 82.23984467 121.60756111 94.22406483 C121.94900658 94.86493534 122.29045204 95.50580585 122.64224434 96.16609669 C123.34248188 97.47917174 124.04370975 98.79171921 124.74598885 100.1037035 C125.82589712 102.12205282 126.90145105 104.14268413 127.97670174 106.16351795 C128.66590467 107.45466716 129.35534787 108.74568815 130.04506111 110.03656483 C130.65921883 111.18632801 131.27337654 112.33609119 131.9061451 113.52069569 C133.12359702 115.98760936 133.12359702 115.98760936 134.36146736 117.13422108 C136.20429227 117.24073543 138.05121825 117.2766589 139.89709663 117.28571033 C141.09880501 117.29405399 142.30051338 117.30239765 143.53863716 117.31099415 C144.88249371 117.31530412 146.22635053 117.31952789 147.5702076 117.3236742 C148.97596169 117.33161173 150.38171331 117.33999928 151.78746223 117.34880543 C154.82132884 117.36689852 157.85518985 117.3819012 160.88908386 117.39458179 C165.68265349 117.41475278 170.47616155 117.44241207 175.26968575 117.47125721 C185.44608417 117.53142697 195.62251946 117.58322621 205.79896736 117.63422108 C216.78008711 117.68926178 227.76118822 117.74571715 238.74224812 117.81176996 C243.51103659 117.84016892 248.27981773 117.8637473 253.04864872 117.88369465 C256.01183288 117.89705777 258.97498305 117.91447169 261.93813896 117.93300533 C263.3160275 117.94077803 264.69392687 117.94684029 266.07183075 117.95109844 C267.94752528 117.95712283 269.82319524 117.9697393 271.69885445 117.98273182 C273.2759376 117.99046242 273.2759376 117.99046242 274.88488102 117.99834919 C277.36146736 118.13422108 277.36146736 118.13422108 279.36146736 119.13422108 C279.68579242 124.50580223 278.99895882 127.65021375 276.35365486 132.31781483 C275.87816452 133.17039371 275.87816452 133.17039371 275.39306831 134.04019642 C274.35506408 135.89246229 273.29622163 137.73182739 272.23646736 139.57172108 C271.50313078 140.87013952 270.77096781 142.16922145 270.03993416 143.46893787 C264.94428784 152.49690499 259.70943668 161.44562186 254.44740486 170.37738514 C249.81390044 178.26964694 245.43893247 186.28486564 241.11244392 194.34857655 C237.17219018 201.67936474 233.09957995 208.92227415 228.94862556 216.13544178 C225.05800972 222.89965619 221.22978744 229.69696018 217.42396736 236.50922108 C210.24549163 249.35382553 203.00645712 262.16358182 195.75697517 274.96820545 C194.14551634 277.81495279 192.53460497 280.66200903 190.92396736 283.50922108 C190.12225105 284.92594105 190.12225105 284.92594105 189.30433846 286.37128162 C186.4967042 291.33782602 183.701381 296.31086341 180.92396736 301.29437733 C175.10296724 311.73683459 169.22672831 322.13651666 163.17396736 332.44672108 C158.68046464 340.10273804 154.26872224 347.79532621 149.98646736 355.57172108 C149.51571785 356.42483875 149.04496834 357.27795643 148.55995369 358.15692616 C146.40336404 361.47013156 146.40336404 361.47013156 145.36146736 365.13422108 C152.33440417 365.46494984 159.30531218 365.69190639 166.28431892 365.84833241 C168.65553009 365.91355204 171.02622143 366.00215874 173.39564705 366.11493397 C186.68123032 367.30505701 186.68123032 367.30505701 198.47450447 362.64618397 C200.59593332 359.22481573 201.97421641 355.90851419 203.36146736 352.13422108 C204.57334479 349.95170303 205.82502811 347.79081583 207.11537361 345.65375233 C208.38692582 343.41922405 209.65639119 341.18350722 210.92396736 338.94672108 C212.32912214 336.47604511 213.73598009 334.00634002 215.14271736 331.53656483 C215.67210663 330.6064156 215.67210663 330.6064156 216.21219063 329.65747547 C219.75930792 323.42784023 223.338264 317.21671887 226.92396736 311.00922108 C227.84544563 309.41364368 227.84544563 309.41364368 228.78553963 307.78583241 C230.02438959 305.6411252 231.26340278 303.49651228 232.50258064 301.35199451 C235.62471339 295.94751466 238.74292617 290.54077389 241.86146736 285.13422108 C245.59783651 278.65655223 249.33495083 272.17932124 253.07631111 265.70453358 C259.89649374 253.89792624 266.68469996 242.07395108 273.43882942 230.22949696 C278.59563344 221.189504 283.81690505 212.18896787 289.07484627 203.20746326 C293.53063081 195.58516329 297.92543882 187.92890797 302.29896736 180.25922108 C310.55312372 165.78471738 318.87864109 151.35200262 327.21595955 136.9252367 C335.12059965 123.24492849 342.99717444 109.54932649 350.8202076 95.82220936 C351.44226082 94.73150135 352.06431404 93.64079334 352.70521736 92.51703358 C353.30463142 91.46032459 353.90404549 90.40361561 354.52162361 89.31488514 C355.7902962 87.12164384 357.09199399 84.94728858 358.42006111 82.78949451 C359.39652596 81.19282948 359.39652596 81.19282948 360.39271736 79.56390858 C360.98633064 78.61499744 361.57994392 77.66608631 362.19154549 76.6884203 C363.76119646 73.96370713 363.76119646 73.96370713 362.36146736 70.13422108 C278.87146736 70.13422108 195.38146736 70.13422108 109.36146736 70.13422108 Z M140.36146736 128.13422108 C145.1953255 137.80193735 150.02992622 147.41089762 155.15394783 156.91962147 C156.12801242 158.72742773 157.09849137 160.53712565 158.06849861 162.3471117 C161.09466472 167.9850308 164.14470909 173.60237162 167.36146736 179.13422108 C170.30757431 176.53209019 172.02981205 173.51797565 173.98646736 170.13031483 C174.33024925 169.53882145 174.67403114 168.94732807 175.02823067 168.33791065 C176.14331297 166.41813818 177.2522977 164.49491449 178.36146736 162.57172108 C179.88873075 159.93864611 181.41959947 157.30767918 182.95131111 154.67718983 C183.32892082 154.0279958 183.70653053 153.37880177 184.09558296 152.70993519 C187.73655259 146.46329125 191.49397275 140.29109532 195.31263924 134.15155506 C197.41270368 131.33223238 197.41270368 131.33223238 198.36146736 128.13422108 C179.22146736 128.13422108 160.08146736 128.13422108 140.36146736 128.13422108 Z M207.77943611 132.36542225 C206.93759896 133.93633165 206.12738126 135.52492868 205.36146736 137.13422108 C204.79637459 138.05702869 204.23128181 138.97983631 203.64906502 139.9306078 C203.19579842 140.71709705 202.74253181 141.50358631 202.27552986 142.31390858 C201.74588631 143.22825672 201.21624275 144.14260487 200.67054939 145.08466053 C200.11480232 146.04976551 199.55905525 147.01487049 198.98646736 148.00922108 C197.74770246 150.14641442 196.50808671 152.28311476 195.26771736 154.41937733 C194.30672127 156.07477528 194.30672127 156.07477528 193.32631111 157.76361561 C190.07477053 163.34149449 186.7818617 168.89467169 183.48646736 174.44672108 C182.81953865 175.57062244 182.15260994 176.69452381 181.46547127 177.8524828 C180.10843809 180.13874973 178.75117855 182.42488232 177.39369392 184.71088123 C175.37881667 188.1049957 173.36582436 191.50021948 171.35365486 194.89593983 C170.6935743 196.00985096 170.03349373 197.12376209 169.35341072 198.27142811 C168.03335628 200.49994016 166.7138508 202.72877748 165.39491463 204.95795155 C162.26754678 210.24149822 159.1337101 215.52071179 155.97661018 220.78653431 C154.48261755 223.27931551 152.992333 225.77430367 151.5023365 228.26947498 C150.78967303 229.46052814 150.07518583 230.65049218 149.35878181 231.8392992 C148.36681292 233.48563512 147.38156483 235.1360149 146.39662361 236.78656483 C145.83338387 237.72492176 145.27014412 238.66327869 144.6898365 239.63007069 C142.98517903 242.735388 142.98517903 242.735388 142.36146736 246.13422108 C143.51532728 248.96797283 143.51532728 248.96797283 145.34193611 251.94672108 C145.66631157 252.5090897 145.99068703 253.07145832 146.32489204 253.65086842 C147.38758783 255.48594164 148.46771928 257.31002788 149.54896736 259.13422108 C150.28374747 260.39257027 151.01762933 261.65144439 151.75062752 262.91083241 C153.59149457 266.06589931 155.44775799 269.21158411 157.3092823 272.35449696 C158.89108405 275.03004409 160.45896825 277.71372884 162.02943611 280.39593983 C163.09698434 282.20539704 164.16589691 284.01405033 165.23646736 285.82172108 C165.72913094 286.65767811 166.22179451 287.49363514 166.72938728 288.3549242 C167.18289558 289.11095936 167.63640388 289.86699451 168.10365486 290.64593983 C168.49407967 291.30038074 168.88450447 291.95482166 169.28676033 292.62909412 C170.30233366 294.2996696 170.30233366 294.2996696 172.36146736 295.13422108 C172.74778328 294.4367577 173.1340992 293.73929432 173.53212166 293.02069569 C180.80935382 279.88772525 188.10892026 266.76912358 195.51234627 253.70673084 C199.50775284 246.65468575 203.47050929 239.58485569 207.42396736 232.50922108 C212.17693242 224.00597662 216.97870636 215.53288941 221.82484627 207.08246326 C225.69100516 200.33105398 229.50287898 193.55024481 233.29896736 186.75922108 C237.84573396 178.62526929 242.40229965 170.49716391 246.98646736 162.38422108 C247.51192146 161.45343739 248.03737556 160.52265369 248.57875252 159.56366444 C251.31199141 154.72971695 254.06418087 149.90758332 256.84193611 145.09906483 C257.6808741 143.64355213 257.6808741 143.64355213 258.53676033 142.15863514 C259.60620479 140.30552679 260.67929207 138.45451466 261.75648689 136.60590076 C262.46780769 135.37275135 262.46780769 135.37275135 263.19349861 134.11468983 C263.61349129 133.39176746 264.03348396 132.6688451 264.46620369 131.924016 C265.51058736 130.16963898 265.51058736 130.16963898 265.36146736 128.13422108 C257.78149108 127.90579621 250.20240306 127.74832498 242.61976814 127.63983631 C240.04130579 127.59460866 237.46307383 127.53321412 234.88539314 127.455266 C231.17631941 127.34592336 227.47029745 127.29501756 223.75990486 127.25531483 C222.03458031 127.18563747 222.03458031 127.18563747 220.27440071 127.1145525 C214.390016 127.11085101 211.20821722 127.29738455 207.77943611 132.36542225 Z " fill="#000000" transform="translate(88.6385326385498,67.86577892303467)"/>
</svg>
